<?xml version="1.0" encoding="UTF-8"?>
<mxfile host="Electron" agent="Mozilla/5.0 (Windows NT 10.0; Win64; x64) AppleWebKit/537.36 (KHTML, like Gecko) draw.io/28.2.5 Chrome/138.0.7204.251 Electron/37.6.1 Safari/537.36" version="28.2.5">
  <diagram name="PÃ¡gina-1" id="N87pYtMLe2mRKHtSH68u">
    <mxGraphModel dx="2180" dy="1454" grid="1" gridSize="10" guides="1" tooltips="1" connect="1" arrows="1" fold="1" page="1" pageScale="1" pageWidth="827" pageHeight="1169" math="0" shadow="0">
      <root>
        <mxCell id="0" />
        <mxCell id="1" parent="0" />
        <mxCell id="uGuvADwGGhDxCDAEwVKC-17" value="patients" style="whiteSpace=wrap;html=1;align=center;" parent="1" vertex="1">
          <mxGeometry x="400" y="394" width="100" height="40" as="geometry" />
        </mxCell>
        <mxCell id="uGuvADwGGhDxCDAEwVKC-18" value="quotes" style="whiteSpace=wrap;html=1;align=center;" parent="1" vertex="1">
          <mxGeometry x="400" y="1014" width="100" height="40" as="geometry" />
        </mxCell>
        <mxCell id="uGuvADwGGhDxCDAEwVKC-19" value="doctors" style="whiteSpace=wrap;html=1;align=center;" parent="1" vertex="1">
          <mxGeometry x="1050" y="1014" width="100" height="40" as="geometry" />
        </mxCell>
        <mxCell id="uGuvADwGGhDxCDAEwVKC-20" value="take" style="shape=rhombus;perimeter=rhombusPerimeter;whiteSpace=wrap;html=1;align=center;" parent="1" vertex="1">
          <mxGeometry x="390" y="730" width="120" height="60" as="geometry" />
        </mxCell>
        <mxCell id="uGuvADwGGhDxCDAEwVKC-21" value="" style="endArrow=none;html=1;rounded=0;exitX=0.5;exitY=1;exitDx=0;exitDy=0;entryX=0.5;entryY=0;entryDx=0;entryDy=0;" parent="1" target="uGuvADwGGhDxCDAEwVKC-20" edge="1">
          <mxGeometry relative="1" as="geometry">
            <mxPoint x="450" y="434" as="sourcePoint" />
            <mxPoint x="450" y="544" as="targetPoint" />
          </mxGeometry>
        </mxCell>
        <mxCell id="uGuvADwGGhDxCDAEwVKC-23" value="(1,n)" style="edgeLabel;html=1;align=center;verticalAlign=middle;resizable=0;points=[];" parent="uGuvADwGGhDxCDAEwVKC-21" vertex="1" connectable="0">
          <mxGeometry x="0.1273" relative="1" as="geometry">
            <mxPoint as="offset" />
          </mxGeometry>
        </mxCell>
        <mxCell id="uGuvADwGGhDxCDAEwVKC-22" value="" style="endArrow=none;html=1;rounded=0;entryX=0.5;entryY=1;entryDx=0;entryDy=0;exitX=0.5;exitY=0;exitDx=0;exitDy=0;" parent="1" source="uGuvADwGGhDxCDAEwVKC-18" target="uGuvADwGGhDxCDAEwVKC-20" edge="1">
          <mxGeometry relative="1" as="geometry">
            <mxPoint x="300" y="934" as="sourcePoint" />
            <mxPoint x="450" y="914" as="targetPoint" />
          </mxGeometry>
        </mxCell>
        <mxCell id="uGuvADwGGhDxCDAEwVKC-24" value="(1,1)" style="edgeLabel;html=1;align=center;verticalAlign=middle;resizable=0;points=[];" parent="uGuvADwGGhDxCDAEwVKC-22" vertex="1" connectable="0">
          <mxGeometry x="-0.04" y="1" relative="1" as="geometry">
            <mxPoint as="offset" />
          </mxGeometry>
        </mxCell>
        <mxCell id="uGuvADwGGhDxCDAEwVKC-25" value="" style="shape=table;startSize=0;container=1;collapsible=1;childLayout=tableLayout;fixedRows=1;rowLines=0;fontStyle=0;align=center;resizeLast=1;strokeColor=none;fillColor=none;collapsible=0;whiteSpace=wrap;html=1;" parent="1" vertex="1">
          <mxGeometry x="480" y="559" width="180" height="30" as="geometry" />
        </mxCell>
        <mxCell id="uGuvADwGGhDxCDAEwVKC-26" value="" style="shape=tableRow;horizontal=0;startSize=0;swimlaneHead=0;swimlaneBody=0;fillColor=none;collapsible=0;dropTarget=0;points=[[0,0.5],[1,0.5]];portConstraint=eastwest;top=0;left=0;right=0;bottom=0;" parent="uGuvADwGGhDxCDAEwVKC-25" vertex="1">
          <mxGeometry width="180" height="30" as="geometry" />
        </mxCell>
        <mxCell id="uGuvADwGGhDxCDAEwVKC-27" value="" style="shape=partialRectangle;connectable=0;fillColor=none;top=0;left=0;bottom=0;right=0;editable=1;overflow=hidden;" parent="uGuvADwGGhDxCDAEwVKC-26" vertex="1">
          <mxGeometry width="30" height="30" as="geometry">
            <mxRectangle width="30" height="30" as="alternateBounds" />
          </mxGeometry>
        </mxCell>
        <mxCell id="uGuvADwGGhDxCDAEwVKC-28" value="(1:N)" style="shape=partialRectangle;connectable=0;fillColor=none;top=0;left=0;bottom=0;right=0;align=left;spacingLeft=6;overflow=hidden;" parent="uGuvADwGGhDxCDAEwVKC-26" vertex="1">
          <mxGeometry x="30" width="150" height="30" as="geometry">
            <mxRectangle width="150" height="30" as="alternateBounds" />
          </mxGeometry>
        </mxCell>
        <mxCell id="uGuvADwGGhDxCDAEwVKC-29" value="has" style="shape=rhombus;perimeter=rhombusPerimeter;whiteSpace=wrap;html=1;align=center;" parent="1" vertex="1">
          <mxGeometry x="710" y="1004" width="120" height="60" as="geometry" />
        </mxCell>
        <mxCell id="uGuvADwGGhDxCDAEwVKC-30" value="" style="endArrow=none;html=1;rounded=0;exitX=1;exitY=0.5;exitDx=0;exitDy=0;entryX=0;entryY=0.5;entryDx=0;entryDy=0;" parent="1" source="uGuvADwGGhDxCDAEwVKC-18" target="uGuvADwGGhDxCDAEwVKC-29" edge="1">
          <mxGeometry relative="1" as="geometry">
            <mxPoint x="451" y="1054" as="sourcePoint" />
            <mxPoint x="451" y="1154" as="targetPoint" />
          </mxGeometry>
        </mxCell>
        <mxCell id="uGuvADwGGhDxCDAEwVKC-32" value="(1,1)" style="edgeLabel;html=1;align=center;verticalAlign=middle;resizable=0;points=[];" parent="uGuvADwGGhDxCDAEwVKC-30" vertex="1" connectable="0">
          <mxGeometry x="0.04" relative="1" as="geometry">
            <mxPoint as="offset" />
          </mxGeometry>
        </mxCell>
        <mxCell id="uGuvADwGGhDxCDAEwVKC-31" value="" style="endArrow=none;html=1;rounded=0;exitX=0;exitY=0.5;exitDx=0;exitDy=0;entryX=1;entryY=0.5;entryDx=0;entryDy=0;" parent="1" source="uGuvADwGGhDxCDAEwVKC-19" target="uGuvADwGGhDxCDAEwVKC-29" edge="1">
          <mxGeometry relative="1" as="geometry">
            <mxPoint x="490" y="1214" as="sourcePoint" />
            <mxPoint x="930" y="1033.9999999999998" as="targetPoint" />
            <Array as="points">
              <mxPoint x="1010" y="1034" />
            </Array>
          </mxGeometry>
        </mxCell>
        <mxCell id="uGuvADwGGhDxCDAEwVKC-33" value="(1,n)" style="edgeLabel;html=1;align=center;verticalAlign=middle;resizable=0;points=[];" parent="uGuvADwGGhDxCDAEwVKC-31" vertex="1" connectable="0">
          <mxGeometry x="-0.2231" y="1" relative="1" as="geometry">
            <mxPoint x="-22" y="-1" as="offset" />
          </mxGeometry>
        </mxCell>
        <mxCell id="uGuvADwGGhDxCDAEwVKC-34" value="" style="shape=table;startSize=0;container=1;collapsible=1;childLayout=tableLayout;fixedRows=1;rowLines=0;fontStyle=0;align=center;resizeLast=1;strokeColor=none;fillColor=none;collapsible=0;whiteSpace=wrap;html=1;" parent="1" vertex="1">
          <mxGeometry x="720" y="974" width="180" height="30" as="geometry" />
        </mxCell>
        <mxCell id="uGuvADwGGhDxCDAEwVKC-35" value="" style="shape=tableRow;horizontal=0;startSize=0;swimlaneHead=0;swimlaneBody=0;fillColor=none;collapsible=0;dropTarget=0;points=[[0,0.5],[1,0.5]];portConstraint=eastwest;top=0;left=0;right=0;bottom=0;" parent="uGuvADwGGhDxCDAEwVKC-34" vertex="1">
          <mxGeometry width="180" height="30" as="geometry" />
        </mxCell>
        <mxCell id="uGuvADwGGhDxCDAEwVKC-36" value="" style="shape=partialRectangle;connectable=0;fillColor=none;top=0;left=0;bottom=0;right=0;editable=1;overflow=hidden;" parent="uGuvADwGGhDxCDAEwVKC-35" vertex="1">
          <mxGeometry width="30" height="30" as="geometry">
            <mxRectangle width="30" height="30" as="alternateBounds" />
          </mxGeometry>
        </mxCell>
        <mxCell id="uGuvADwGGhDxCDAEwVKC-37" value="(1:N)" style="shape=partialRectangle;connectable=0;fillColor=none;top=0;left=0;bottom=0;right=0;align=left;spacingLeft=6;overflow=hidden;" parent="uGuvADwGGhDxCDAEwVKC-35" vertex="1">
          <mxGeometry x="30" width="150" height="30" as="geometry">
            <mxRectangle width="150" height="30" as="alternateBounds" />
          </mxGeometry>
        </mxCell>
        <mxCell id="uGuvADwGGhDxCDAEwVKC-42" value="" style="endArrow=none;html=1;rounded=0;entryX=0;entryY=0.5;entryDx=0;entryDy=0;exitX=1;exitY=0.5;exitDx=0;exitDy=0;" parent="1" source="uGuvADwGGhDxCDAEwVKC-71" target="uGuvADwGGhDxCDAEwVKC-17" edge="1">
          <mxGeometry relative="1" as="geometry">
            <mxPoint x="340" y="374" as="sourcePoint" />
            <mxPoint x="400" y="414" as="targetPoint" />
          </mxGeometry>
        </mxCell>
        <mxCell id="uGuvADwGGhDxCDAEwVKC-43" value="" style="endArrow=none;html=1;rounded=0;entryX=0.5;entryY=0;entryDx=0;entryDy=0;" parent="1" target="uGuvADwGGhDxCDAEwVKC-17" edge="1">
          <mxGeometry relative="1" as="geometry">
            <mxPoint x="450" y="334" as="sourcePoint" />
            <mxPoint x="460" y="374" as="targetPoint" />
          </mxGeometry>
        </mxCell>
        <mxCell id="uGuvADwGGhDxCDAEwVKC-50" value="" style="endArrow=none;html=1;rounded=0;entryX=0;entryY=0.5;entryDx=0;entryDy=0;exitX=0;exitY=0.75;exitDx=0;exitDy=0;" parent="1" source="uGuvADwGGhDxCDAEwVKC-17" target="uGuvADwGGhDxCDAEwVKC-72" edge="1">
          <mxGeometry relative="1" as="geometry">
            <mxPoint x="500" y="394" as="sourcePoint" />
            <mxPoint x="569.7" y="353.03999999999974" as="targetPoint" />
          </mxGeometry>
        </mxCell>
        <mxCell id="uGuvADwGGhDxCDAEwVKC-63" value="document" style="ellipse;shape=doubleEllipse;margin=3;whiteSpace=wrap;html=1;align=center;" parent="1" vertex="1">
          <mxGeometry x="200" y="304" width="100" height="40" as="geometry" />
        </mxCell>
        <mxCell id="uGuvADwGGhDxCDAEwVKC-71" value="daddress" style="ellipse;shape=doubleEllipse;margin=3;whiteSpace=wrap;html=1;align=center;" parent="1" vertex="1">
          <mxGeometry x="190" y="394" width="100" height="40" as="geometry" />
        </mxCell>
        <mxCell id="uGuvADwGGhDxCDAEwVKC-72" value="hour" style="ellipse;shape=doubleEllipse;margin=3;whiteSpace=wrap;html=1;align=center;" parent="1" vertex="1">
          <mxGeometry x="110" y="460" width="100" height="40" as="geometry" />
        </mxCell>
        <mxCell id="uGuvADwGGhDxCDAEwVKC-73" value="specialty" style="ellipse;shape=doubleEllipse;margin=3;whiteSpace=wrap;html=1;align=center;" parent="1" vertex="1">
          <mxGeometry x="1300" y="1169" width="100" height="40" as="geometry" />
        </mxCell>
        <mxCell id="uGuvADwGGhDxCDAEwVKC-74" value="" style="endArrow=none;html=1;rounded=0;entryX=0.5;entryY=0;entryDx=0;entryDy=0;" parent="1" source="PgeR62QArdd1iCkHsd3m-27" target="uGuvADwGGhDxCDAEwVKC-19" edge="1">
          <mxGeometry relative="1" as="geometry">
            <mxPoint x="930" y="994" as="sourcePoint" />
            <mxPoint x="1100" y="1000" as="targetPoint" />
          </mxGeometry>
        </mxCell>
        <mxCell id="uGuvADwGGhDxCDAEwVKC-75" value="medical_schedule" style="ellipse;shape=doubleEllipse;margin=3;whiteSpace=wrap;html=1;align=center;" parent="1" vertex="1">
          <mxGeometry x="1330" y="880" width="130" height="40" as="geometry" />
        </mxCell>
        <mxCell id="uGuvADwGGhDxCDAEwVKC-76" value="" style="endArrow=none;html=1;rounded=0;exitX=1;exitY=1;exitDx=0;exitDy=0;entryX=0;entryY=0;entryDx=0;entryDy=0;" parent="1" source="uGuvADwGGhDxCDAEwVKC-19" target="uGuvADwGGhDxCDAEwVKC-73" edge="1">
          <mxGeometry relative="1" as="geometry">
            <mxPoint x="1150" y="1034" as="sourcePoint" />
            <mxPoint x="1340" y="1190" as="targetPoint" />
          </mxGeometry>
        </mxCell>
        <mxCell id="uGuvADwGGhDxCDAEwVKC-77" value="" style="endArrow=none;html=1;rounded=0;exitX=0.5;exitY=1;exitDx=0;exitDy=0;entryX=0.5;entryY=0;entryDx=0;entryDy=0;" parent="1" source="uGuvADwGGhDxCDAEwVKC-19" target="uGuvADwGGhDxCDAEwVKC-78" edge="1">
          <mxGeometry relative="1" as="geometry">
            <mxPoint x="1080" y="1114" as="sourcePoint" />
            <mxPoint x="1100" y="1114" as="targetPoint" />
          </mxGeometry>
        </mxCell>
        <mxCell id="uGuvADwGGhDxCDAEwVKC-78" value="phone" style="ellipse;shape=doubleEllipse;margin=3;whiteSpace=wrap;html=1;align=center;" parent="1" vertex="1">
          <mxGeometry x="950" y="1190" width="100" height="40" as="geometry" />
        </mxCell>
        <mxCell id="uGuvADwGGhDxCDAEwVKC-79" value="" style="endArrow=none;html=1;rounded=0;exitX=1;exitY=1;exitDx=0;exitDy=0;entryX=0.5;entryY=0;entryDx=0;entryDy=0;" parent="1" source="uGuvADwGGhDxCDAEwVKC-19" target="uGuvADwGGhDxCDAEwVKC-80" edge="1">
          <mxGeometry relative="1" as="geometry">
            <mxPoint x="1180" y="1104" as="sourcePoint" />
            <mxPoint x="1230" y="1094" as="targetPoint" />
          </mxGeometry>
        </mxCell>
        <mxCell id="uGuvADwGGhDxCDAEwVKC-80" value="practice_ directions" style="ellipse;shape=doubleEllipse;margin=3;whiteSpace=wrap;html=1;align=center;" parent="1" vertex="1">
          <mxGeometry x="1230" y="1094" width="130" height="40" as="geometry" />
        </mxCell>
        <mxCell id="uGuvADwGGhDxCDAEwVKC-81" value="date" style="ellipse;whiteSpace=wrap;html=1;align=center;" parent="1" vertex="1">
          <mxGeometry x="260" y="964" width="100" height="40" as="geometry" />
        </mxCell>
        <mxCell id="uGuvADwGGhDxCDAEwVKC-82" value="start_time" style="ellipse;whiteSpace=wrap;html=1;align=center;" parent="1" vertex="1">
          <mxGeometry x="240" y="1024" width="100" height="40" as="geometry" />
        </mxCell>
        <mxCell id="uGuvADwGGhDxCDAEwVKC-84" value="" style="endArrow=none;html=1;rounded=0;entryX=0.25;entryY=0;entryDx=0;entryDy=0;exitX=1;exitY=0.5;exitDx=0;exitDy=0;" parent="1" source="uGuvADwGGhDxCDAEwVKC-81" target="uGuvADwGGhDxCDAEwVKC-18" edge="1">
          <mxGeometry relative="1" as="geometry">
            <mxPoint x="320" y="984" as="sourcePoint" />
            <mxPoint x="400" y="954" as="targetPoint" />
          </mxGeometry>
        </mxCell>
        <mxCell id="uGuvADwGGhDxCDAEwVKC-86" value="" style="endArrow=none;html=1;rounded=0;exitX=1;exitY=0.5;exitDx=0;exitDy=0;" parent="1" source="uGuvADwGGhDxCDAEwVKC-82" edge="1">
          <mxGeometry relative="1" as="geometry">
            <mxPoint x="240" y="1034" as="sourcePoint" />
            <mxPoint x="400" y="1034" as="targetPoint" />
          </mxGeometry>
        </mxCell>
        <mxCell id="uGuvADwGGhDxCDAEwVKC-87" value="" style="endArrow=none;html=1;rounded=0;exitX=0.5;exitY=1;exitDx=0;exitDy=0;entryX=0.5;entryY=0;entryDx=0;entryDy=0;" parent="1" source="uGuvADwGGhDxCDAEwVKC-18" target="PgeR62QArdd1iCkHsd3m-47" edge="1">
          <mxGeometry relative="1" as="geometry">
            <mxPoint x="380" y="1094" as="sourcePoint" />
            <mxPoint x="450" y="1130" as="targetPoint" />
          </mxGeometry>
        </mxCell>
        <mxCell id="PgeR62QArdd1iCkHsd3m-1" value="" style="endArrow=none;html=1;rounded=0;entryX=0;entryY=1;entryDx=0;entryDy=0;" parent="1" target="PgeR62QArdd1iCkHsd3m-4" edge="1">
          <mxGeometry width="50" height="50" relative="1" as="geometry">
            <mxPoint x="500" y="394" as="sourcePoint" />
            <mxPoint x="640" y="334" as="targetPoint" />
          </mxGeometry>
        </mxCell>
        <mxCell id="PgeR62QArdd1iCkHsd3m-2" value="patient_id" style="ellipse;whiteSpace=wrap;html=1;align=center;fontStyle=4;" parent="1" vertex="1">
          <mxGeometry x="400" y="294" width="100" height="40" as="geometry" />
        </mxCell>
        <mxCell id="PgeR62QArdd1iCkHsd3m-3" value="" style="endArrow=none;html=1;rounded=0;entryX=0;entryY=0;entryDx=0;entryDy=0;" parent="1" target="uGuvADwGGhDxCDAEwVKC-17" edge="1">
          <mxGeometry relative="1" as="geometry">
            <mxPoint x="290" y="334" as="sourcePoint" />
            <mxPoint x="400" y="384" as="targetPoint" />
          </mxGeometry>
        </mxCell>
        <mxCell id="PgeR62QArdd1iCkHsd3m-4" value="full_name" style="ellipse;whiteSpace=wrap;html=1;align=center;dashed=1;" parent="1" vertex="1">
          <mxGeometry x="620" y="174" width="100" height="40" as="geometry" />
        </mxCell>
        <mxCell id="PgeR62QArdd1iCkHsd3m-5" value="" style="endArrow=none;html=1;rounded=0;exitX=0.5;exitY=0;exitDx=0;exitDy=0;entryX=0;entryY=1;entryDx=0;entryDy=0;" parent="1" source="PgeR62QArdd1iCkHsd3m-4" target="PgeR62QArdd1iCkHsd3m-10" edge="1">
          <mxGeometry relative="1" as="geometry">
            <mxPoint x="700" y="160" as="sourcePoint" />
            <mxPoint x="754.8544793961719" y="114.22556786345399" as="targetPoint" />
          </mxGeometry>
        </mxCell>
        <mxCell id="PgeR62QArdd1iCkHsd3m-6" value="" style="endArrow=none;html=1;rounded=0;exitX=1;exitY=0.5;exitDx=0;exitDy=0;entryX=0;entryY=1;entryDx=0;entryDy=0;" parent="1" source="PgeR62QArdd1iCkHsd3m-4" target="PgeR62QArdd1iCkHsd3m-11" edge="1">
          <mxGeometry relative="1" as="geometry">
            <mxPoint x="760" y="210" as="sourcePoint" />
            <mxPoint x="820" y="160" as="targetPoint" />
          </mxGeometry>
        </mxCell>
        <mxCell id="PgeR62QArdd1iCkHsd3m-7" value="" style="endArrow=none;html=1;rounded=0;exitX=1;exitY=1;exitDx=0;exitDy=0;entryX=0;entryY=0;entryDx=0;entryDy=0;" parent="1" source="PgeR62QArdd1iCkHsd3m-4" target="PgeR62QArdd1iCkHsd3m-12" edge="1">
          <mxGeometry relative="1" as="geometry">
            <mxPoint x="800" y="264" as="sourcePoint" />
            <mxPoint x="900" y="240" as="targetPoint" />
          </mxGeometry>
        </mxCell>
        <mxCell id="PgeR62QArdd1iCkHsd3m-8" value="" style="endArrow=none;html=1;rounded=0;exitX=0.599;exitY=1.03;exitDx=0;exitDy=0;exitPerimeter=0;entryX=0;entryY=0;entryDx=0;entryDy=0;" parent="1" source="PgeR62QArdd1iCkHsd3m-4" target="PgeR62QArdd1iCkHsd3m-13" edge="1">
          <mxGeometry relative="1" as="geometry">
            <mxPoint x="730" y="254" as="sourcePoint" />
            <mxPoint x="830" y="270" as="targetPoint" />
          </mxGeometry>
        </mxCell>
        <mxCell id="PgeR62QArdd1iCkHsd3m-10" value="first_name" style="ellipse;whiteSpace=wrap;html=1;align=center;" parent="1" vertex="1">
          <mxGeometry x="760" y="70" width="100" height="40" as="geometry" />
        </mxCell>
        <mxCell id="PgeR62QArdd1iCkHsd3m-11" value="middle_name" style="ellipse;whiteSpace=wrap;html=1;align=center;" parent="1" vertex="1">
          <mxGeometry x="827" y="134" width="100" height="40" as="geometry" />
        </mxCell>
        <mxCell id="PgeR62QArdd1iCkHsd3m-12" value="first_last_name" style="ellipse;whiteSpace=wrap;html=1;align=center;" parent="1" vertex="1">
          <mxGeometry x="900" y="224" width="100" height="40" as="geometry" />
        </mxCell>
        <mxCell id="PgeR62QArdd1iCkHsd3m-13" value="second_last_name" style="ellipse;whiteSpace=wrap;html=1;align=center;" parent="1" vertex="1">
          <mxGeometry x="810" y="260" width="117" height="40" as="geometry" />
        </mxCell>
        <mxCell id="PgeR62QArdd1iCkHsd3m-14" value="" style="endArrow=none;html=1;rounded=0;entryX=0.25;entryY=0;entryDx=0;entryDy=0;exitX=0.5;exitY=1;exitDx=0;exitDy=0;" parent="1" source="PgeR62QArdd1iCkHsd3m-15" target="uGuvADwGGhDxCDAEwVKC-17" edge="1">
          <mxGeometry relative="1" as="geometry">
            <mxPoint x="330" y="280" as="sourcePoint" />
            <mxPoint x="430" y="390" as="targetPoint" />
          </mxGeometry>
        </mxCell>
        <mxCell id="PgeR62QArdd1iCkHsd3m-15" value="date_of_birth" style="ellipse;whiteSpace=wrap;html=1;align=center;" parent="1" vertex="1">
          <mxGeometry x="280" y="230" width="100" height="40" as="geometry" />
        </mxCell>
        <mxCell id="PgeR62QArdd1iCkHsd3m-16" value="" style="endArrow=none;html=1;rounded=0;entryX=0;entryY=1;entryDx=0;entryDy=0;exitX=0.5;exitY=0;exitDx=0;exitDy=0;" parent="1" source="PgeR62QArdd1iCkHsd3m-17" target="uGuvADwGGhDxCDAEwVKC-17" edge="1">
          <mxGeometry relative="1" as="geometry">
            <mxPoint x="300" y="500" as="sourcePoint" />
            <mxPoint x="390" y="500" as="targetPoint" />
          </mxGeometry>
        </mxCell>
        <mxCell id="PgeR62QArdd1iCkHsd3m-17" value="sex" style="ellipse;whiteSpace=wrap;html=1;align=center;" parent="1" vertex="1">
          <mxGeometry x="220" y="500" width="100" height="40" as="geometry" />
        </mxCell>
        <mxCell id="PgeR62QArdd1iCkHsd3m-18" value="" style="endArrow=none;html=1;rounded=0;exitX=0.75;exitY=1;exitDx=0;exitDy=0;entryX=0.5;entryY=0;entryDx=0;entryDy=0;" parent="1" source="uGuvADwGGhDxCDAEwVKC-17" target="PgeR62QArdd1iCkHsd3m-19" edge="1">
          <mxGeometry relative="1" as="geometry">
            <mxPoint x="380" y="500" as="sourcePoint" />
            <mxPoint x="400" y="500" as="targetPoint" />
          </mxGeometry>
        </mxCell>
        <mxCell id="PgeR62QArdd1iCkHsd3m-19" value=" email" style="ellipse;whiteSpace=wrap;html=1;align=center;" parent="1" vertex="1">
          <mxGeometry x="480" y="500" width="100" height="40" as="geometry" />
        </mxCell>
        <mxCell id="PgeR62QArdd1iCkHsd3m-21" value="" style="endArrow=none;html=1;rounded=0;exitX=1;exitY=1;exitDx=0;exitDy=0;entryX=0.5;entryY=0;entryDx=0;entryDy=0;" parent="1" source="uGuvADwGGhDxCDAEwVKC-17" target="PgeR62QArdd1iCkHsd3m-22" edge="1">
          <mxGeometry relative="1" as="geometry">
            <mxPoint x="490" y="460" as="sourcePoint" />
            <mxPoint x="630" y="480" as="targetPoint" />
          </mxGeometry>
        </mxCell>
        <mxCell id="PgeR62QArdd1iCkHsd3m-22" value="Attribute" style="ellipse;whiteSpace=wrap;html=1;align=center;" parent="1" vertex="1">
          <mxGeometry x="610" y="480" width="100" height="40" as="geometry" />
        </mxCell>
        <mxCell id="PgeR62QArdd1iCkHsd3m-23" value="" style="endArrow=none;html=1;rounded=0;entryX=0.25;entryY=1;entryDx=0;entryDy=0;exitX=0.5;exitY=0;exitDx=0;exitDy=0;" parent="1" source="PgeR62QArdd1iCkHsd3m-24" target="uGuvADwGGhDxCDAEwVKC-17" edge="1">
          <mxGeometry relative="1" as="geometry">
            <mxPoint x="360" y="560" as="sourcePoint" />
            <mxPoint x="350" y="630" as="targetPoint" />
          </mxGeometry>
        </mxCell>
        <mxCell id="PgeR62QArdd1iCkHsd3m-24" value="asset" style="ellipse;whiteSpace=wrap;html=1;align=center;" parent="1" vertex="1">
          <mxGeometry x="320" y="530" width="100" height="40" as="geometry" />
        </mxCell>
        <mxCell id="PgeR62QArdd1iCkHsd3m-25" value="" style="endArrow=none;html=1;rounded=0;exitX=0.75;exitY=0;exitDx=0;exitDy=0;entryX=0.5;entryY=1;entryDx=0;entryDy=0;" parent="1" source="uGuvADwGGhDxCDAEwVKC-17" target="PgeR62QArdd1iCkHsd3m-26" edge="1">
          <mxGeometry relative="1" as="geometry">
            <mxPoint x="500" y="360" as="sourcePoint" />
            <mxPoint x="570" y="260" as="targetPoint" />
          </mxGeometry>
        </mxCell>
        <mxCell id="PgeR62QArdd1iCkHsd3m-26" value="emergency_contact" style="ellipse;shape=doubleEllipse;margin=3;whiteSpace=wrap;html=1;align=center;" parent="1" vertex="1">
          <mxGeometry x="440" y="200" width="140" height="54" as="geometry" />
        </mxCell>
        <mxCell id="PgeR62QArdd1iCkHsd3m-27" value="doctor_id" style="ellipse;whiteSpace=wrap;html=1;align=center;" parent="1" vertex="1">
          <mxGeometry x="1030" y="820" width="100" height="40" as="geometry" />
        </mxCell>
        <mxCell id="PgeR62QArdd1iCkHsd3m-28" value="" style="endArrow=none;html=1;rounded=0;exitX=0.75;exitY=1;exitDx=0;exitDy=0;entryX=0;entryY=1;entryDx=0;entryDy=0;" parent="1" source="uGuvADwGGhDxCDAEwVKC-19" target="PgeR62QArdd1iCkHsd3m-29" edge="1">
          <mxGeometry relative="1" as="geometry">
            <mxPoint x="1180" y="990" as="sourcePoint" />
            <mxPoint x="1200" y="960" as="targetPoint" />
          </mxGeometry>
        </mxCell>
        <mxCell id="PgeR62QArdd1iCkHsd3m-29" value="internal_code" style="ellipse;whiteSpace=wrap;html=1;align=center;" parent="1" vertex="1">
          <mxGeometry x="1180" y="1140" width="100" height="40" as="geometry" />
        </mxCell>
        <mxCell id="PgeR62QArdd1iCkHsd3m-30" value="" style="endArrow=none;html=1;rounded=0;entryX=0.25;entryY=1;entryDx=0;entryDy=0;exitX=0.5;exitY=0;exitDx=0;exitDy=0;" parent="1" source="PgeR62QArdd1iCkHsd3m-31" target="uGuvADwGGhDxCDAEwVKC-19" edge="1">
          <mxGeometry relative="1" as="geometry">
            <mxPoint x="990" y="1110" as="sourcePoint" />
            <mxPoint x="1030" y="1110" as="targetPoint" />
          </mxGeometry>
        </mxCell>
        <mxCell id="PgeR62QArdd1iCkHsd3m-31" value="tuition_number" style="ellipse;whiteSpace=wrap;html=1;align=center;" parent="1" vertex="1">
          <mxGeometry x="930" y="1110" width="100" height="40" as="geometry" />
        </mxCell>
        <mxCell id="PgeR62QArdd1iCkHsd3m-34" value="" style="endArrow=none;html=1;rounded=0;exitX=1;exitY=0;exitDx=0;exitDy=0;entryX=0.5;entryY=1;entryDx=0;entryDy=0;" parent="1" source="uGuvADwGGhDxCDAEwVKC-19" target="PgeR62QArdd1iCkHsd3m-44" edge="1">
          <mxGeometry relative="1" as="geometry">
            <mxPoint x="1190" y="1190" as="sourcePoint" />
            <mxPoint x="1220" y="1160" as="targetPoint" />
          </mxGeometry>
        </mxCell>
        <mxCell id="PgeR62QArdd1iCkHsd3m-35" value="names" style="ellipse;whiteSpace=wrap;html=1;align=center;" parent="1" vertex="1">
          <mxGeometry x="927" y="870" width="100" height="40" as="geometry" />
        </mxCell>
        <mxCell id="PgeR62QArdd1iCkHsd3m-37" value="" style="endArrow=none;html=1;rounded=0;entryX=0.25;entryY=0;entryDx=0;entryDy=0;exitX=0.5;exitY=1;exitDx=0;exitDy=0;" parent="1" source="PgeR62QArdd1iCkHsd3m-38" target="uGuvADwGGhDxCDAEwVKC-19" edge="1">
          <mxGeometry relative="1" as="geometry">
            <mxPoint x="1000" y="960" as="sourcePoint" />
            <mxPoint x="970" y="930" as="targetPoint" />
          </mxGeometry>
        </mxCell>
        <mxCell id="PgeR62QArdd1iCkHsd3m-38" value="surnames" style="ellipse;whiteSpace=wrap;html=1;align=center;" parent="1" vertex="1">
          <mxGeometry x="927" y="934" width="100" height="40" as="geometry" />
        </mxCell>
        <mxCell id="PgeR62QArdd1iCkHsd3m-39" value="" style="endArrow=none;html=1;rounded=0;exitX=1;exitY=0.25;exitDx=0;exitDy=0;entryX=0;entryY=0.5;entryDx=0;entryDy=0;" parent="1" source="uGuvADwGGhDxCDAEwVKC-19" target="PgeR62QArdd1iCkHsd3m-40" edge="1">
          <mxGeometry relative="1" as="geometry">
            <mxPoint x="1130" y="990" as="sourcePoint" />
            <mxPoint x="1320" y="980" as="targetPoint" />
          </mxGeometry>
        </mxCell>
        <mxCell id="PgeR62QArdd1iCkHsd3m-40" value="professional_email" style="ellipse;whiteSpace=wrap;html=1;align=center;" parent="1" vertex="1">
          <mxGeometry x="1330" y="960" width="140" height="40" as="geometry" />
        </mxCell>
        <mxCell id="PgeR62QArdd1iCkHsd3m-41" value="" style="endArrow=none;html=1;rounded=0;exitX=0.75;exitY=0;exitDx=0;exitDy=0;entryX=0.5;entryY=1;entryDx=0;entryDy=0;" parent="1" source="uGuvADwGGhDxCDAEwVKC-19" target="PgeR62QArdd1iCkHsd3m-42" edge="1">
          <mxGeometry relative="1" as="geometry">
            <mxPoint x="1150" y="980" as="sourcePoint" />
            <mxPoint x="1240" y="850" as="targetPoint" />
          </mxGeometry>
        </mxCell>
        <mxCell id="PgeR62QArdd1iCkHsd3m-42" value="hospital_admission_date" style="ellipse;whiteSpace=wrap;html=1;align=center;" parent="1" vertex="1">
          <mxGeometry x="1151" y="800" width="180" height="40" as="geometry" />
        </mxCell>
        <mxCell id="PgeR62QArdd1iCkHsd3m-43" value="" style="endArrow=none;html=1;rounded=0;entryX=0.32;entryY=0.075;entryDx=0;entryDy=0;entryPerimeter=0;exitX=0.71;exitY=1.025;exitDx=0;exitDy=0;exitPerimeter=0;" parent="1" source="PgeR62QArdd1iCkHsd3m-35" target="uGuvADwGGhDxCDAEwVKC-19" edge="1">
          <mxGeometry relative="1" as="geometry">
            <mxPoint x="960" y="880" as="sourcePoint" />
            <mxPoint x="1120" y="880" as="targetPoint" />
          </mxGeometry>
        </mxCell>
        <mxCell id="PgeR62QArdd1iCkHsd3m-44" value="asset" style="ellipse;whiteSpace=wrap;html=1;align=center;" parent="1" vertex="1">
          <mxGeometry x="1190" y="910" width="100" height="40" as="geometry" />
        </mxCell>
        <mxCell id="PgeR62QArdd1iCkHsd3m-45" value="" style="endArrow=none;html=1;rounded=0;exitX=1;exitY=0;exitDx=0;exitDy=0;entryX=0.5;entryY=1;entryDx=0;entryDy=0;" parent="1" source="uGuvADwGGhDxCDAEwVKC-19" target="uGuvADwGGhDxCDAEwVKC-75" edge="1">
          <mxGeometry relative="1" as="geometry">
            <mxPoint x="1230" y="980" as="sourcePoint" />
            <mxPoint x="1390" y="980" as="targetPoint" />
          </mxGeometry>
        </mxCell>
        <mxCell id="PgeR62QArdd1iCkHsd3m-47" value="appointment_id" style="ellipse;whiteSpace=wrap;html=1;align=center;fontStyle=4;" parent="1" vertex="1">
          <mxGeometry x="400" y="1134" width="100" height="40" as="geometry" />
        </mxCell>
        <mxCell id="PgeR62QArdd1iCkHsd3m-49" value="" style="endArrow=none;html=1;rounded=0;entryX=0;entryY=1;entryDx=0;entryDy=0;exitX=0.5;exitY=0;exitDx=0;exitDy=0;" parent="1" source="PgeR62QArdd1iCkHsd3m-50" target="uGuvADwGGhDxCDAEwVKC-18" edge="1">
          <mxGeometry relative="1" as="geometry">
            <mxPoint x="300" y="1130" as="sourcePoint" />
            <mxPoint x="390" y="1160" as="targetPoint" />
          </mxGeometry>
        </mxCell>
        <mxCell id="PgeR62QArdd1iCkHsd3m-50" value="end_time" style="ellipse;whiteSpace=wrap;html=1;align=center;" parent="1" vertex="1">
          <mxGeometry x="250" y="1100" width="100" height="40" as="geometry" />
        </mxCell>
        <mxCell id="PgeR62QArdd1iCkHsd3m-51" value="attention_type" style="ellipse;whiteSpace=wrap;html=1;align=center;" parent="1" vertex="1">
          <mxGeometry x="500" y="1094" width="100" height="40" as="geometry" />
        </mxCell>
        <mxCell id="PgeR62QArdd1iCkHsd3m-52" value="" style="endArrow=none;html=1;rounded=0;exitX=0.75;exitY=1;exitDx=0;exitDy=0;entryX=0;entryY=0;entryDx=0;entryDy=0;" parent="1" source="uGuvADwGGhDxCDAEwVKC-18" target="PgeR62QArdd1iCkHsd3m-51" edge="1">
          <mxGeometry relative="1" as="geometry">
            <mxPoint x="490" y="1070" as="sourcePoint" />
            <mxPoint x="650" y="1070" as="targetPoint" />
          </mxGeometry>
        </mxCell>
        <mxCell id="PgeR62QArdd1iCkHsd3m-55" value="state" style="ellipse;whiteSpace=wrap;html=1;align=center;" parent="1" vertex="1">
          <mxGeometry x="280" y="1190" width="100" height="40" as="geometry" />
        </mxCell>
        <mxCell id="PgeR62QArdd1iCkHsd3m-56" value="" style="endArrow=none;html=1;rounded=0;entryX=0.25;entryY=1;entryDx=0;entryDy=0;exitX=0.5;exitY=0;exitDx=0;exitDy=0;" parent="1" source="PgeR62QArdd1iCkHsd3m-55" target="uGuvADwGGhDxCDAEwVKC-18" edge="1">
          <mxGeometry relative="1" as="geometry">
            <mxPoint x="230" y="1140" as="sourcePoint" />
            <mxPoint x="390" y="1140" as="targetPoint" />
          </mxGeometry>
        </mxCell>
        <mxCell id="PgeR62QArdd1iCkHsd3m-57" value="reason" style="ellipse;whiteSpace=wrap;html=1;align=center;" parent="1" vertex="1">
          <mxGeometry x="490" y="1190" width="100" height="40" as="geometry" />
        </mxCell>
        <mxCell id="PgeR62QArdd1iCkHsd3m-58" value="" style="endArrow=none;html=1;rounded=0;exitX=0.61;exitY=0.95;exitDx=0;exitDy=0;exitPerimeter=0;entryX=0.4;entryY=0.025;entryDx=0;entryDy=0;entryPerimeter=0;" parent="1" source="uGuvADwGGhDxCDAEwVKC-18" target="PgeR62QArdd1iCkHsd3m-57" edge="1">
          <mxGeometry relative="1" as="geometry">
            <mxPoint x="470" y="1110" as="sourcePoint" />
            <mxPoint x="630" y="1110" as="targetPoint" />
          </mxGeometry>
        </mxCell>
        <mxCell id="PgeR62QArdd1iCkHsd3m-59" value="created_by" style="ellipse;whiteSpace=wrap;html=1;align=center;" parent="1" vertex="1">
          <mxGeometry x="480" y="950" width="100" height="40" as="geometry" />
        </mxCell>
        <mxCell id="PgeR62QArdd1iCkHsd3m-60" value="" style="endArrow=none;html=1;rounded=0;exitX=0.75;exitY=0;exitDx=0;exitDy=0;entryX=0;entryY=1;entryDx=0;entryDy=0;" parent="1" source="uGuvADwGGhDxCDAEwVKC-18" target="PgeR62QArdd1iCkHsd3m-59" edge="1">
          <mxGeometry relative="1" as="geometry">
            <mxPoint x="500" y="1000" as="sourcePoint" />
            <mxPoint x="660" y="1000" as="targetPoint" />
          </mxGeometry>
        </mxCell>
        <mxCell id="PgeR62QArdd1iCkHsd3m-61" value="creation_date" style="ellipse;whiteSpace=wrap;html=1;align=center;" parent="1" vertex="1">
          <mxGeometry x="314" y="910" width="100" height="40" as="geometry" />
        </mxCell>
        <mxCell id="PgeR62QArdd1iCkHsd3m-62" value="" style="endArrow=none;html=1;rounded=0;exitX=0.41;exitY=1.05;exitDx=0;exitDy=0;exitPerimeter=0;entryX=0.5;entryY=0;entryDx=0;entryDy=0;" parent="1" source="PgeR62QArdd1iCkHsd3m-61" target="uGuvADwGGhDxCDAEwVKC-18" edge="1">
          <mxGeometry relative="1" as="geometry">
            <mxPoint x="390" y="970" as="sourcePoint" />
            <mxPoint x="550" y="970" as="targetPoint" />
          </mxGeometry>
        </mxCell>
        <mxCell id="PgeR62QArdd1iCkHsd3m-67" value="clinical_stories" style="whiteSpace=wrap;html=1;align=center;" parent="1" vertex="1">
          <mxGeometry x="1054" y="1723" width="100" height="40" as="geometry" />
        </mxCell>
        <mxCell id="PgeR62QArdd1iCkHsd3m-73" value="" style="endArrow=none;html=1;rounded=0;exitX=0.5;exitY=1;exitDx=0;exitDy=0;entryX=0.5;entryY=0;entryDx=0;entryDy=0;" parent="1" source="PgeR62QArdd1iCkHsd3m-67" target="PgeR62QArdd1iCkHsd3m-74" edge="1">
          <mxGeometry relative="1" as="geometry">
            <mxPoint x="1084" y="1823" as="sourcePoint" />
            <mxPoint x="1104" y="1823" as="targetPoint" />
          </mxGeometry>
        </mxCell>
        <mxCell id="PgeR62QArdd1iCkHsd3m-74" value="phone" style="ellipse;shape=doubleEllipse;margin=3;whiteSpace=wrap;html=1;align=center;" parent="1" vertex="1">
          <mxGeometry x="954" y="1899" width="100" height="40" as="geometry" />
        </mxCell>
        <mxCell id="PgeR62QArdd1iCkHsd3m-78" value="" style="endArrow=none;html=1;rounded=0;exitX=0.75;exitY=1;exitDx=0;exitDy=0;entryX=0;entryY=1;entryDx=0;entryDy=0;" parent="1" source="PgeR62QArdd1iCkHsd3m-67" target="PgeR62QArdd1iCkHsd3m-79" edge="1">
          <mxGeometry relative="1" as="geometry">
            <mxPoint x="1184" y="1699" as="sourcePoint" />
            <mxPoint x="1204" y="1669" as="targetPoint" />
          </mxGeometry>
        </mxCell>
        <mxCell id="PgeR62QArdd1iCkHsd3m-79" value="internal_code" style="ellipse;whiteSpace=wrap;html=1;align=center;" parent="1" vertex="1">
          <mxGeometry x="1190" y="1980" width="100" height="40" as="geometry" />
        </mxCell>
        <mxCell id="PgeR62QArdd1iCkHsd3m-80" value="" style="endArrow=none;html=1;rounded=0;entryX=0.25;entryY=1;entryDx=0;entryDy=0;exitX=0.5;exitY=0;exitDx=0;exitDy=0;" parent="1" source="PgeR62QArdd1iCkHsd3m-81" target="PgeR62QArdd1iCkHsd3m-67" edge="1">
          <mxGeometry relative="1" as="geometry">
            <mxPoint x="994" y="1819" as="sourcePoint" />
            <mxPoint x="1034" y="1819" as="targetPoint" />
          </mxGeometry>
        </mxCell>
        <mxCell id="PgeR62QArdd1iCkHsd3m-81" value="tuition_number" style="ellipse;whiteSpace=wrap;html=1;align=center;" parent="1" vertex="1">
          <mxGeometry x="934" y="1819" width="100" height="40" as="geometry" />
        </mxCell>
        <mxCell id="PgeR62QArdd1iCkHsd3m-82" value="" style="endArrow=none;html=1;rounded=0;exitX=1;exitY=0;exitDx=0;exitDy=0;entryX=0.5;entryY=1;entryDx=0;entryDy=0;" parent="1" source="PgeR62QArdd1iCkHsd3m-67" target="PgeR62QArdd1iCkHsd3m-90" edge="1">
          <mxGeometry relative="1" as="geometry">
            <mxPoint x="1194" y="1899" as="sourcePoint" />
            <mxPoint x="1224" y="1869" as="targetPoint" />
          </mxGeometry>
        </mxCell>
        <mxCell id="PgeR62QArdd1iCkHsd3m-83" value="record_type" style="ellipse;whiteSpace=wrap;html=1;align=center;" parent="1" vertex="1">
          <mxGeometry x="920" y="1650" width="100" height="40" as="geometry" />
        </mxCell>
        <mxCell id="PgeR62QArdd1iCkHsd3m-84" value="" style="endArrow=none;html=1;rounded=0;entryX=1;entryY=1;entryDx=0;entryDy=0;exitX=0.5;exitY=0;exitDx=0;exitDy=0;" parent="1" source="PgeR62QArdd1iCkHsd3m-85" target="PgeR62QArdd1iCkHsd3m-67" edge="1">
          <mxGeometry relative="1" as="geometry">
            <mxPoint x="1004" y="1669" as="sourcePoint" />
            <mxPoint x="974" y="1639" as="targetPoint" />
          </mxGeometry>
        </mxCell>
        <mxCell id="PgeR62QArdd1iCkHsd3m-85" value="structured_summary" style="ellipse;whiteSpace=wrap;html=1;align=center;" parent="1" vertex="1">
          <mxGeometry x="1180" y="1884" width="150" height="40" as="geometry" />
        </mxCell>
        <mxCell id="PgeR62QArdd1iCkHsd3m-88" value="" style="endArrow=none;html=1;rounded=0;exitX=0.75;exitY=0;exitDx=0;exitDy=0;entryX=0.5;entryY=1;entryDx=0;entryDy=0;" parent="1" source="PgeR62QArdd1iCkHsd3m-67" target="PgeR62QArdd1iCkHsd3m-92" edge="1">
          <mxGeometry relative="1" as="geometry">
            <mxPoint x="1154" y="1689" as="sourcePoint" />
            <mxPoint x="1245" y="1549" as="targetPoint" />
          </mxGeometry>
        </mxCell>
        <mxCell id="PgeR62QArdd1iCkHsd3m-89" value="" style="endArrow=none;html=1;rounded=0;exitX=0.71;exitY=1.025;exitDx=0;exitDy=0;exitPerimeter=0;entryX=0.25;entryY=0;entryDx=0;entryDy=0;" parent="1" source="PgeR62QArdd1iCkHsd3m-83" target="PgeR62QArdd1iCkHsd3m-67" edge="1">
          <mxGeometry relative="1" as="geometry">
            <mxPoint x="964" y="1589" as="sourcePoint" />
            <mxPoint x="1080" y="1720" as="targetPoint" />
          </mxGeometry>
        </mxCell>
        <mxCell id="PgeR62QArdd1iCkHsd3m-90" value="summary_text" style="ellipse;whiteSpace=wrap;html=1;align=center;" parent="1" vertex="1">
          <mxGeometry x="1280" y="1600" width="100" height="40" as="geometry" />
        </mxCell>
        <mxCell id="PgeR62QArdd1iCkHsd3m-92" value="date_time_registration" style="ellipse;whiteSpace=wrap;html=1;align=center;dashed=1;" parent="1" vertex="1">
          <mxGeometry x="1209" y="1503" width="151" height="40" as="geometry" />
        </mxCell>
        <mxCell id="PgeR62QArdd1iCkHsd3m-93" value="" style="endArrow=none;html=1;rounded=0;exitX=0.5;exitY=0;exitDx=0;exitDy=0;entryX=0;entryY=1;entryDx=0;entryDy=0;" parent="1" source="PgeR62QArdd1iCkHsd3m-92" target="PgeR62QArdd1iCkHsd3m-97" edge="1">
          <mxGeometry relative="1" as="geometry">
            <mxPoint x="1289" y="1489" as="sourcePoint" />
            <mxPoint x="1343.8544793961719" y="1443.225567863454" as="targetPoint" />
          </mxGeometry>
        </mxCell>
        <mxCell id="PgeR62QArdd1iCkHsd3m-94" value="" style="endArrow=none;html=1;rounded=0;exitX=1;exitY=0.5;exitDx=0;exitDy=0;entryX=0;entryY=1;entryDx=0;entryDy=0;" parent="1" source="PgeR62QArdd1iCkHsd3m-92" target="PgeR62QArdd1iCkHsd3m-98" edge="1">
          <mxGeometry relative="1" as="geometry">
            <mxPoint x="1349" y="1539" as="sourcePoint" />
            <mxPoint x="1409" y="1489" as="targetPoint" />
          </mxGeometry>
        </mxCell>
        <mxCell id="PgeR62QArdd1iCkHsd3m-97" value="registration_date" style="ellipse;whiteSpace=wrap;html=1;align=center;" parent="1" vertex="1">
          <mxGeometry x="1349" y="1399" width="100" height="40" as="geometry" />
        </mxCell>
        <mxCell id="PgeR62QArdd1iCkHsd3m-98" value="registration_time" style="ellipse;whiteSpace=wrap;html=1;align=center;" parent="1" vertex="1">
          <mxGeometry x="1416" y="1463" width="100" height="40" as="geometry" />
        </mxCell>
        <mxCell id="PgeR62QArdd1iCkHsd3m-102" value="" style="endArrow=none;html=1;rounded=0;exitX=0.5;exitY=0;exitDx=0;exitDy=0;entryX=0.5;entryY=1;entryDx=0;entryDy=0;" parent="1" source="PgeR62QArdd1iCkHsd3m-103" target="PgeR62QArdd1iCkHsd3m-67" edge="1">
          <mxGeometry relative="1" as="geometry">
            <mxPoint x="1110" y="1530" as="sourcePoint" />
            <mxPoint x="1130" y="1810" as="targetPoint" />
          </mxGeometry>
        </mxCell>
        <mxCell id="PgeR62QArdd1iCkHsd3m-103" value="history_id" style="ellipse;whiteSpace=wrap;html=1;align=center;fontStyle=4;" parent="1" vertex="1">
          <mxGeometry x="1054" y="1850" width="100" height="40" as="geometry" />
        </mxCell>
        <mxCell id="PgeR62QArdd1iCkHsd3m-105" value="" style="endArrow=none;html=1;rounded=0;entryX=0.5;entryY=1;entryDx=0;entryDy=0;exitX=0.5;exitY=0;exitDx=0;exitDy=0;" parent="1" source="PgeR62QArdd1iCkHsd3m-106" target="uGuvADwGGhDxCDAEwVKC-19" edge="1">
          <mxGeometry relative="1" as="geometry">
            <mxPoint x="1100" y="1360" as="sourcePoint" />
            <mxPoint x="1110" y="1290" as="targetPoint" />
          </mxGeometry>
        </mxCell>
        <mxCell id="PgeR62QArdd1iCkHsd3m-108" value="(1,n)" style="edgeLabel;html=1;align=center;verticalAlign=middle;resizable=0;points=[];" parent="PgeR62QArdd1iCkHsd3m-105" vertex="1" connectable="0">
          <mxGeometry x="0.0744" y="-2" relative="1" as="geometry">
            <mxPoint as="offset" />
          </mxGeometry>
        </mxCell>
        <mxCell id="PgeR62QArdd1iCkHsd3m-106" value="register" style="shape=rhombus;double=1;perimeter=rhombusPerimeter;whiteSpace=wrap;html=1;align=center;" parent="1" vertex="1">
          <mxGeometry x="1044" y="1360" width="120" height="60" as="geometry" />
        </mxCell>
        <mxCell id="PgeR62QArdd1iCkHsd3m-107" value="" style="endArrow=none;html=1;rounded=0;entryX=0.5;entryY=1;entryDx=0;entryDy=0;exitX=0.5;exitY=0;exitDx=0;exitDy=0;" parent="1" source="PgeR62QArdd1iCkHsd3m-67" target="PgeR62QArdd1iCkHsd3m-106" edge="1">
          <mxGeometry relative="1" as="geometry">
            <mxPoint x="920" y="1520" as="sourcePoint" />
            <mxPoint x="1080" y="1520" as="targetPoint" />
          </mxGeometry>
        </mxCell>
        <mxCell id="PgeR62QArdd1iCkHsd3m-109" value="(1,1)" style="edgeLabel;html=1;align=center;verticalAlign=middle;resizable=0;points=[];" parent="PgeR62QArdd1iCkHsd3m-107" vertex="1" connectable="0">
          <mxGeometry x="0.0895" y="2" relative="1" as="geometry">
            <mxPoint as="offset" />
          </mxGeometry>
        </mxCell>
        <mxCell id="PgeR62QArdd1iCkHsd3m-110" value="" style="shape=table;startSize=0;container=1;collapsible=1;childLayout=tableLayout;fixedRows=1;rowLines=0;fontStyle=0;align=center;resizeLast=1;strokeColor=none;fillColor=none;collapsible=0;whiteSpace=wrap;html=1;" parent="1" vertex="1">
          <mxGeometry x="1130" y="1375" width="180" height="30" as="geometry" />
        </mxCell>
        <mxCell id="PgeR62QArdd1iCkHsd3m-111" value="" style="shape=tableRow;horizontal=0;startSize=0;swimlaneHead=0;swimlaneBody=0;fillColor=none;collapsible=0;dropTarget=0;points=[[0,0.5],[1,0.5]];portConstraint=eastwest;top=0;left=0;right=0;bottom=0;" parent="PgeR62QArdd1iCkHsd3m-110" vertex="1">
          <mxGeometry width="180" height="30" as="geometry" />
        </mxCell>
        <mxCell id="PgeR62QArdd1iCkHsd3m-112" value="" style="shape=partialRectangle;connectable=0;fillColor=none;top=0;left=0;bottom=0;right=0;editable=1;overflow=hidden;" parent="PgeR62QArdd1iCkHsd3m-111" vertex="1">
          <mxGeometry width="30" height="30" as="geometry">
            <mxRectangle width="30" height="30" as="alternateBounds" />
          </mxGeometry>
        </mxCell>
        <mxCell id="PgeR62QArdd1iCkHsd3m-113" value="(1:N)" style="shape=partialRectangle;connectable=0;fillColor=none;top=0;left=0;bottom=0;right=0;align=left;spacingLeft=6;overflow=hidden;" parent="PgeR62QArdd1iCkHsd3m-111" vertex="1">
          <mxGeometry x="30" width="150" height="30" as="geometry">
            <mxRectangle width="150" height="30" as="alternateBounds" />
          </mxGeometry>
        </mxCell>
        <mxCell id="PgeR62QArdd1iCkHsd3m-143" value="vital_signs" style="ellipse;shape=doubleEllipse;margin=3;whiteSpace=wrap;html=1;align=center;" parent="1" vertex="1">
          <mxGeometry x="1220" y="1770" width="100" height="40" as="geometry" />
        </mxCell>
        <mxCell id="PgeR62QArdd1iCkHsd3m-144" value="prescription" style="ellipse;shape=doubleEllipse;margin=3;whiteSpace=wrap;html=1;align=center;" parent="1" vertex="1">
          <mxGeometry x="810" y="1800" width="100" height="40" as="geometry" />
        </mxCell>
        <mxCell id="PgeR62QArdd1iCkHsd3m-145" value="history_diagnosis" style="ellipse;shape=doubleEllipse;margin=3;whiteSpace=wrap;html=1;align=center;" parent="1" vertex="1">
          <mxGeometry x="797" y="1723" width="130" height="40" as="geometry" />
        </mxCell>
        <mxCell id="PgeR62QArdd1iCkHsd3m-146" value="" style="endArrow=none;html=1;rounded=0;entryX=0;entryY=0.5;entryDx=0;entryDy=0;exitX=1;exitY=0.5;exitDx=0;exitDy=0;" parent="1" source="PgeR62QArdd1iCkHsd3m-145" target="PgeR62QArdd1iCkHsd3m-67" edge="1">
          <mxGeometry relative="1" as="geometry">
            <mxPoint x="890" y="1730" as="sourcePoint" />
            <mxPoint x="1050" y="1730" as="targetPoint" />
          </mxGeometry>
        </mxCell>
        <mxCell id="PgeR62QArdd1iCkHsd3m-147" value="" style="endArrow=none;html=1;rounded=0;entryX=0;entryY=1;entryDx=0;entryDy=0;exitX=1;exitY=0.5;exitDx=0;exitDy=0;" parent="1" source="PgeR62QArdd1iCkHsd3m-144" target="PgeR62QArdd1iCkHsd3m-67" edge="1">
          <mxGeometry relative="1" as="geometry">
            <mxPoint x="830" y="1780" as="sourcePoint" />
            <mxPoint x="990" y="1780" as="targetPoint" />
          </mxGeometry>
        </mxCell>
        <mxCell id="PgeR62QArdd1iCkHsd3m-148" value="" style="endArrow=none;html=1;rounded=0;exitX=1;exitY=0.5;exitDx=0;exitDy=0;entryX=0;entryY=0;entryDx=0;entryDy=0;" parent="1" source="PgeR62QArdd1iCkHsd3m-67" target="PgeR62QArdd1iCkHsd3m-143" edge="1">
          <mxGeometry relative="1" as="geometry">
            <mxPoint x="1160" y="1750" as="sourcePoint" />
            <mxPoint x="1320" y="1750" as="targetPoint" />
          </mxGeometry>
        </mxCell>
        <mxCell id="PgeR62QArdd1iCkHsd3m-149" value="" style="endArrow=none;html=1;rounded=0;exitX=1;exitY=0.5;exitDx=0;exitDy=0;entryX=0;entryY=0.5;entryDx=0;entryDy=0;" parent="1" source="uGuvADwGGhDxCDAEwVKC-17" target="PgeR62QArdd1iCkHsd3m-150" edge="1">
          <mxGeometry relative="1" as="geometry">
            <mxPoint x="540" y="420" as="sourcePoint" />
            <mxPoint x="1050" y="420" as="targetPoint" />
          </mxGeometry>
        </mxCell>
        <mxCell id="PgeR62QArdd1iCkHsd3m-154" value="(1,n)" style="edgeLabel;html=1;align=center;verticalAlign=middle;resizable=0;points=[];" parent="PgeR62QArdd1iCkHsd3m-149" vertex="1" connectable="0">
          <mxGeometry x="-0.5806" relative="1" as="geometry">
            <mxPoint as="offset" />
          </mxGeometry>
        </mxCell>
        <mxCell id="PgeR62QArdd1iCkHsd3m-150" value="has" style="shape=rhombus;double=1;perimeter=rhombusPerimeter;whiteSpace=wrap;html=1;align=center;" parent="1" vertex="1">
          <mxGeometry x="740" y="384" width="120" height="60" as="geometry" />
        </mxCell>
        <mxCell id="PgeR62QArdd1iCkHsd3m-151" value="" style="endArrow=none;html=1;rounded=0;exitX=1;exitY=0.5;exitDx=0;exitDy=0;entryX=0;entryY=0.5;entryDx=0;entryDy=0;" parent="1" source="PgeR62QArdd1iCkHsd3m-150" target="PgeR62QArdd1iCkHsd3m-152" edge="1">
          <mxGeometry relative="1" as="geometry">
            <mxPoint x="980" y="400" as="sourcePoint" />
            <mxPoint x="1150" y="414" as="targetPoint" />
          </mxGeometry>
        </mxCell>
        <mxCell id="PgeR62QArdd1iCkHsd3m-155" value="(1,1)" style="edgeLabel;html=1;align=center;verticalAlign=middle;resizable=0;points=[];" parent="PgeR62QArdd1iCkHsd3m-151" vertex="1" connectable="0">
          <mxGeometry x="0.1289" y="1" relative="1" as="geometry">
            <mxPoint as="offset" />
          </mxGeometry>
        </mxCell>
        <mxCell id="PgeR62QArdd1iCkHsd3m-152" value="policies" style="whiteSpace=wrap;html=1;align=center;" parent="1" vertex="1">
          <mxGeometry x="1109" y="394" width="100" height="40" as="geometry" />
        </mxCell>
        <mxCell id="PgeR62QArdd1iCkHsd3m-156" value="" style="shape=table;startSize=0;container=1;collapsible=1;childLayout=tableLayout;fixedRows=1;rowLines=0;fontStyle=0;align=center;resizeLast=1;strokeColor=none;fillColor=none;collapsible=0;whiteSpace=wrap;html=1;" parent="1" vertex="1">
          <mxGeometry x="750" y="354" width="180" height="30" as="geometry" />
        </mxCell>
        <mxCell id="PgeR62QArdd1iCkHsd3m-157" value="" style="shape=tableRow;horizontal=0;startSize=0;swimlaneHead=0;swimlaneBody=0;fillColor=none;collapsible=0;dropTarget=0;points=[[0,0.5],[1,0.5]];portConstraint=eastwest;top=0;left=0;right=0;bottom=0;" parent="PgeR62QArdd1iCkHsd3m-156" vertex="1">
          <mxGeometry width="180" height="30" as="geometry" />
        </mxCell>
        <mxCell id="PgeR62QArdd1iCkHsd3m-158" value="" style="shape=partialRectangle;connectable=0;fillColor=none;top=0;left=0;bottom=0;right=0;editable=1;overflow=hidden;" parent="PgeR62QArdd1iCkHsd3m-157" vertex="1">
          <mxGeometry width="30" height="30" as="geometry">
            <mxRectangle width="30" height="30" as="alternateBounds" />
          </mxGeometry>
        </mxCell>
        <mxCell id="PgeR62QArdd1iCkHsd3m-159" value="(1:N)" style="shape=partialRectangle;connectable=0;fillColor=none;top=0;left=0;bottom=0;right=0;align=left;spacingLeft=6;overflow=hidden;" parent="PgeR62QArdd1iCkHsd3m-157" vertex="1">
          <mxGeometry x="30" width="150" height="30" as="geometry">
            <mxRectangle width="150" height="30" as="alternateBounds" />
          </mxGeometry>
        </mxCell>
        <mxCell id="PgeR62QArdd1iCkHsd3m-160" value="policy_id" style="ellipse;whiteSpace=wrap;html=1;align=center;fontStyle=4;" parent="1" vertex="1">
          <mxGeometry x="1109" y="300" width="100" height="40" as="geometry" />
        </mxCell>
        <mxCell id="PgeR62QArdd1iCkHsd3m-161" value="policy_number" style="ellipse;whiteSpace=wrap;html=1;align=center;" parent="1" vertex="1">
          <mxGeometry x="1000" y="460" width="100" height="40" as="geometry" />
        </mxCell>
        <mxCell id="PgeR62QArdd1iCkHsd3m-162" value="coverage_summary" style="ellipse;whiteSpace=wrap;html=1;align=center;" parent="1" vertex="1">
          <mxGeometry x="1109" y="545" width="129" height="40" as="geometry" />
        </mxCell>
        <mxCell id="PgeR62QArdd1iCkHsd3m-163" value="start_date" style="ellipse;whiteSpace=wrap;html=1;align=center;" parent="1" vertex="1">
          <mxGeometry x="1260" y="460" width="100" height="40" as="geometry" />
        </mxCell>
        <mxCell id="PgeR62QArdd1iCkHsd3m-164" value="start_date" style="ellipse;whiteSpace=wrap;html=1;align=center;" parent="1" vertex="1">
          <mxGeometry x="1245" y="320" width="100" height="40" as="geometry" />
        </mxCell>
        <mxCell id="PgeR62QArdd1iCkHsd3m-165" value="state" style="ellipse;whiteSpace=wrap;html=1;align=center;" parent="1" vertex="1">
          <mxGeometry x="1259" y="250" width="100" height="40" as="geometry" />
        </mxCell>
        <mxCell id="PgeR62QArdd1iCkHsd3m-166" value="" style="endArrow=none;html=1;rounded=0;entryX=0.5;entryY=0;entryDx=0;entryDy=0;exitX=0.5;exitY=1;exitDx=0;exitDy=0;" parent="1" source="PgeR62QArdd1iCkHsd3m-160" target="PgeR62QArdd1iCkHsd3m-152" edge="1">
          <mxGeometry relative="1" as="geometry">
            <mxPoint x="1000" y="370" as="sourcePoint" />
            <mxPoint x="1160" y="370" as="targetPoint" />
          </mxGeometry>
        </mxCell>
        <mxCell id="PgeR62QArdd1iCkHsd3m-167" value="" style="endArrow=none;html=1;rounded=0;exitX=0.75;exitY=0;exitDx=0;exitDy=0;entryX=0.5;entryY=1;entryDx=0;entryDy=0;" parent="1" source="PgeR62QArdd1iCkHsd3m-152" target="PgeR62QArdd1iCkHsd3m-164" edge="1">
          <mxGeometry relative="1" as="geometry">
            <mxPoint x="1220" y="370" as="sourcePoint" />
            <mxPoint x="1390" y="390" as="targetPoint" />
          </mxGeometry>
        </mxCell>
        <mxCell id="PgeR62QArdd1iCkHsd3m-168" value="" style="endArrow=none;html=1;rounded=0;exitX=0.75;exitY=1;exitDx=0;exitDy=0;entryX=0;entryY=0;entryDx=0;entryDy=0;" parent="1" source="PgeR62QArdd1iCkHsd3m-152" target="PgeR62QArdd1iCkHsd3m-163" edge="1">
          <mxGeometry relative="1" as="geometry">
            <mxPoint x="1210" y="460" as="sourcePoint" />
            <mxPoint x="1370" y="460" as="targetPoint" />
          </mxGeometry>
        </mxCell>
        <mxCell id="PgeR62QArdd1iCkHsd3m-169" value="" style="endArrow=none;html=1;rounded=0;exitX=0.5;exitY=1;exitDx=0;exitDy=0;entryX=0.437;entryY=0.028;entryDx=0;entryDy=0;entryPerimeter=0;" parent="1" source="PgeR62QArdd1iCkHsd3m-152" target="PgeR62QArdd1iCkHsd3m-162" edge="1">
          <mxGeometry relative="1" as="geometry">
            <mxPoint x="1150" y="450" as="sourcePoint" />
            <mxPoint x="1310" y="450" as="targetPoint" />
          </mxGeometry>
        </mxCell>
        <mxCell id="PgeR62QArdd1iCkHsd3m-170" value="" style="endArrow=none;html=1;rounded=0;entryX=0.25;entryY=1;entryDx=0;entryDy=0;exitX=0.5;exitY=0;exitDx=0;exitDy=0;" parent="1" source="PgeR62QArdd1iCkHsd3m-161" target="PgeR62QArdd1iCkHsd3m-152" edge="1">
          <mxGeometry relative="1" as="geometry">
            <mxPoint x="960" y="470" as="sourcePoint" />
            <mxPoint x="1120" y="470" as="targetPoint" />
          </mxGeometry>
        </mxCell>
        <mxCell id="PgeR62QArdd1iCkHsd3m-171" value="insurers" style="rounded=1;arcSize=10;whiteSpace=wrap;html=1;align=center;" parent="1" vertex="1">
          <mxGeometry x="1510" y="394" width="100" height="40" as="geometry" />
        </mxCell>
        <mxCell id="PgeR62QArdd1iCkHsd3m-172" value="" style="endArrow=none;html=1;rounded=0;exitX=1;exitY=0.5;exitDx=0;exitDy=0;entryX=0;entryY=0.5;entryDx=0;entryDy=0;" parent="1" source="PgeR62QArdd1iCkHsd3m-152" target="PgeR62QArdd1iCkHsd3m-173" edge="1">
          <mxGeometry relative="1" as="geometry">
            <mxPoint x="1230" y="410" as="sourcePoint" />
            <mxPoint x="1360" y="414" as="targetPoint" />
          </mxGeometry>
        </mxCell>
        <mxCell id="PgeR62QArdd1iCkHsd3m-183" value="(1,1)" style="edgeLabel;html=1;align=center;verticalAlign=middle;resizable=0;points=[];" parent="PgeR62QArdd1iCkHsd3m-172" vertex="1" connectable="0">
          <mxGeometry x="-0.2897" y="2" relative="1" as="geometry">
            <mxPoint as="offset" />
          </mxGeometry>
        </mxCell>
        <mxCell id="PgeR62QArdd1iCkHsd3m-173" value="consultation" style="shape=rhombus;double=1;perimeter=rhombusPerimeter;whiteSpace=wrap;html=1;align=center;" parent="1" vertex="1">
          <mxGeometry x="1310" y="384" width="120" height="60" as="geometry" />
        </mxCell>
        <mxCell id="PgeR62QArdd1iCkHsd3m-174" value="" style="endArrow=none;html=1;rounded=0;exitX=1;exitY=0.5;exitDx=0;exitDy=0;entryX=0;entryY=0.5;entryDx=0;entryDy=0;" parent="1" source="PgeR62QArdd1iCkHsd3m-173" target="PgeR62QArdd1iCkHsd3m-171" edge="1">
          <mxGeometry relative="1" as="geometry">
            <mxPoint x="1450" y="410" as="sourcePoint" />
            <mxPoint x="1610" y="410" as="targetPoint" />
          </mxGeometry>
        </mxCell>
        <mxCell id="PgeR62QArdd1iCkHsd3m-184" value="(1,n)" style="edgeLabel;html=1;align=center;verticalAlign=middle;resizable=0;points=[];" parent="PgeR62QArdd1iCkHsd3m-174" vertex="1" connectable="0">
          <mxGeometry x="0.0891" y="-1" relative="1" as="geometry">
            <mxPoint as="offset" />
          </mxGeometry>
        </mxCell>
        <mxCell id="PgeR62QArdd1iCkHsd3m-175" value="insurer_id" style="ellipse;whiteSpace=wrap;html=1;align=center;fontStyle=4;" parent="1" vertex="1">
          <mxGeometry x="1510" y="304" width="100" height="40" as="geometry" />
        </mxCell>
        <mxCell id="PgeR62QArdd1iCkHsd3m-178" value="contact" style="ellipse;whiteSpace=wrap;html=1;align=center;" parent="1" vertex="1">
          <mxGeometry x="1520" y="545" width="100" height="40" as="geometry" />
        </mxCell>
        <mxCell id="PgeR62QArdd1iCkHsd3m-179" value="name" style="ellipse;whiteSpace=wrap;html=1;align=center;" parent="1" vertex="1">
          <mxGeometry x="1449" y="500" width="100" height="40" as="geometry" />
        </mxCell>
        <mxCell id="PgeR62QArdd1iCkHsd3m-180" value="" style="endArrow=none;html=1;rounded=0;entryX=0.5;entryY=0;entryDx=0;entryDy=0;exitX=0.5;exitY=1;exitDx=0;exitDy=0;" parent="1" source="PgeR62QArdd1iCkHsd3m-175" target="PgeR62QArdd1iCkHsd3m-171" edge="1">
          <mxGeometry relative="1" as="geometry">
            <mxPoint x="1410" y="370" as="sourcePoint" />
            <mxPoint x="1570" y="370" as="targetPoint" />
          </mxGeometry>
        </mxCell>
        <mxCell id="PgeR62QArdd1iCkHsd3m-181" value="" style="endArrow=none;html=1;rounded=0;entryX=0.25;entryY=1;entryDx=0;entryDy=0;exitX=0.5;exitY=0;exitDx=0;exitDy=0;" parent="1" source="PgeR62QArdd1iCkHsd3m-179" target="PgeR62QArdd1iCkHsd3m-171" edge="1">
          <mxGeometry relative="1" as="geometry">
            <mxPoint x="1400" y="450" as="sourcePoint" />
            <mxPoint x="1560" y="450" as="targetPoint" />
          </mxGeometry>
        </mxCell>
        <mxCell id="PgeR62QArdd1iCkHsd3m-182" value="" style="endArrow=none;html=1;rounded=0;exitX=0.5;exitY=1;exitDx=0;exitDy=0;entryX=0.5;entryY=0;entryDx=0;entryDy=0;" parent="1" source="PgeR62QArdd1iCkHsd3m-171" target="PgeR62QArdd1iCkHsd3m-178" edge="1">
          <mxGeometry relative="1" as="geometry">
            <mxPoint x="1550" y="480" as="sourcePoint" />
            <mxPoint x="1710" y="480" as="targetPoint" />
          </mxGeometry>
        </mxCell>
        <mxCell id="PgeR62QArdd1iCkHsd3m-185" value="" style="shape=table;startSize=0;container=1;collapsible=1;childLayout=tableLayout;fixedRows=1;rowLines=0;fontStyle=0;align=center;resizeLast=1;strokeColor=none;fillColor=none;collapsible=0;whiteSpace=wrap;html=1;" parent="1" vertex="1">
          <mxGeometry x="1320" y="354" width="180" height="30" as="geometry" />
        </mxCell>
        <mxCell id="PgeR62QArdd1iCkHsd3m-186" value="" style="shape=tableRow;horizontal=0;startSize=0;swimlaneHead=0;swimlaneBody=0;fillColor=none;collapsible=0;dropTarget=0;points=[[0,0.5],[1,0.5]];portConstraint=eastwest;top=0;left=0;right=0;bottom=0;" parent="PgeR62QArdd1iCkHsd3m-185" vertex="1">
          <mxGeometry width="180" height="30" as="geometry" />
        </mxCell>
        <mxCell id="PgeR62QArdd1iCkHsd3m-187" value="" style="shape=partialRectangle;connectable=0;fillColor=none;top=0;left=0;bottom=0;right=0;editable=1;overflow=hidden;" parent="PgeR62QArdd1iCkHsd3m-186" vertex="1">
          <mxGeometry width="30" height="30" as="geometry">
            <mxRectangle width="30" height="30" as="alternateBounds" />
          </mxGeometry>
        </mxCell>
        <mxCell id="PgeR62QArdd1iCkHsd3m-188" value="(N:1)" style="shape=partialRectangle;connectable=0;fillColor=none;top=0;left=0;bottom=0;right=0;align=left;spacingLeft=6;overflow=hidden;" parent="PgeR62QArdd1iCkHsd3m-186" vertex="1">
          <mxGeometry x="30" width="150" height="30" as="geometry">
            <mxRectangle width="150" height="30" as="alternateBounds" />
          </mxGeometry>
        </mxCell>
        <mxCell id="Z0GHQDc4Ut4O8IfrxcEj-2" value="" style="swimlane;startSize=0;" parent="1" vertex="1">
          <mxGeometry x="180" y="1410" width="450" height="210" as="geometry" />
        </mxCell>
        <mxCell id="Z0GHQDc4Ut4O8IfrxcEj-3" value="&lt;b&gt;Relaciones y cardinalidad&lt;/b&gt;" style="text;html=1;align=center;verticalAlign=middle;whiteSpace=wrap;rounded=0;" parent="Z0GHQDc4Ut4O8IfrxcEj-2" vertex="1">
          <mxGeometry x="85" y="-10" width="280" height="53" as="geometry" />
        </mxCell>
        <mxCell id="Z0GHQDc4Ut4O8IfrxcEj-11" value="&lt;h1 style=&quot;margin-top: 0px;&quot;&gt;&lt;font size=&quot;3&quot;&gt;relacion&lt;/font&gt;&lt;/h1&gt;&lt;p&gt;tiene&lt;/p&gt;&lt;p&gt;toma&lt;/p&gt;&lt;p&gt;atiende&lt;/p&gt;&lt;p&gt;registra&lt;/p&gt;&lt;p&gt;consulta&lt;/p&gt;" style="text;html=1;whiteSpace=wrap;overflow=hidden;rounded=0;" parent="Z0GHQDc4Ut4O8IfrxcEj-2" vertex="1">
          <mxGeometry y="20" width="80" height="290" as="geometry" />
        </mxCell>
        <mxCell id="Z0GHQDc4Ut4O8IfrxcEj-12" value="&lt;h1 style=&quot;margin-top: 0px;&quot;&gt;&lt;font style=&quot;font-size: 12px;&quot;&gt;entidades involucadas&lt;/font&gt;&lt;/h1&gt;&lt;p&gt;paciente â poliza&lt;/p&gt;&lt;p&gt;paciente â cita&lt;/p&gt;&lt;p&gt;doctor â cita&lt;/p&gt;&lt;p&gt;doctor â historia_clinica&lt;/p&gt;&lt;p&gt;aseguradora â poliza&lt;/p&gt;" style="text;html=1;whiteSpace=wrap;overflow=hidden;rounded=0;" parent="Z0GHQDc4Ut4O8IfrxcEj-2" vertex="1">
          <mxGeometry x="130" y="20" width="150" height="300" as="geometry" />
        </mxCell>
        <mxCell id="Z0GHQDc4Ut4O8IfrxcEj-13" value="&lt;h1 style=&quot;margin-top: 0px;&quot;&gt;&amp;nbsp; &amp;nbsp; &amp;nbsp; &amp;nbsp; &lt;font style=&quot;font-size: 12px;&quot;&gt;cardinalidad&lt;/font&gt;&lt;/h1&gt;&lt;p&gt;1:N&lt;/p&gt;&lt;p&gt;1:N&lt;/p&gt;&lt;p&gt;1:N&lt;/p&gt;&lt;p&gt;1:N&lt;/p&gt;&lt;p&gt;1:N&lt;/p&gt;" style="text;html=1;whiteSpace=wrap;overflow=hidden;rounded=0;" parent="Z0GHQDc4Ut4O8IfrxcEj-2" vertex="1">
          <mxGeometry x="350" y="-10" width="90" height="320" as="geometry" />
        </mxCell>
      </root>
    </mxGraphModel>
  </diagram>
</mxfile>
